<?xml version="1.0" encoding="UTF-8"?>
<svg width="512px" height="225px" viewBox="0 0 512 225" version="1.1" xmlns="http://www.w3.org/2000/svg" xmlns:xlink="http://www.w3.org/1999/xlink">
    <title>Logo_white</title>
    <defs>
        <polygon id="path-1" points="0 -1.42108547e-14 54.7567048 -1.42108547e-14 54.7567048 54.9009 0 54.9009"></polygon>
    </defs>
    <g id="Logo" stroke="none" stroke-width="1" fill="none" fill-rule="evenodd">
        <g id="Logo-+-Text" transform="translate(0, -144)">
            <g id="Logo_white" transform="translate(0, 144)">
                <path d="M29.775,189.1411 C29.775,184.0021 26.023,180.9841 20.637,180.9841 L12.806,180.9841 L12.806,211.9831 L20.637,211.9831 C26.023,211.9831 29.775,209.0471 29.775,203.8261 L29.775,189.1411 Z M42.581,188.0001 L42.581,204.9681 C42.581,217.7761 30.347,223.3231 20.637,223.3231 L2.365,223.3231 C0.491,223.3231 0,222.4251 0,220.9561 L0,172.0111 C0,170.5421 0.491,169.6451 2.365,169.6451 L20.637,169.6451 C30.347,169.6451 42.581,175.2731 42.581,188.0001 L42.581,188.0001 Z" id="Fill-1" fill="#FFFFFF"></path>
                <path d="M80.0206,203.0089 L73.9006,184.9819 L67.7836,203.0089 L80.0206,203.0089 Z M97.8036,223.3229 L89.2386,223.3229 C87.4426,223.3229 86.7916,222.8329 86.1396,220.8739 L83.8556,214.4299 L63.8666,214.4299 L61.5856,220.8739 C60.9306,222.8329 60.2796,223.3229 58.4836,223.3229 L49.9206,223.3229 C48.1246,223.3229 48.1246,222.0179 48.5336,221.0379 L66.6416,172.1739 C67.2966,170.4609 68.1926,169.6449 69.9866,169.6449 L77.8176,169.6449 C79.6116,169.6449 80.4296,170.4609 81.1626,172.1739 L99.1926,221.0379 C99.5976,222.0179 99.5976,223.3229 97.8036,223.3229 L97.8036,223.3229 Z" id="Fill-3" fill="#FFFFFF"></path>
                <path d="M141.6882,172.0115 L141.6882,178.7815 C141.6882,180.2485 141.1972,181.1485 139.3222,181.1485 L126.8402,181.1485 L126.8402,220.9565 C126.8402,222.8335 125.9442,223.3225 124.4742,223.3225 L116.4002,223.3225 C114.9312,223.3225 114.0342,222.8335 114.0342,220.9565 L114.0342,181.1485 L101.4702,181.1485 C99.5942,181.1485 99.1042,180.2485 99.1042,178.7815 L99.1042,172.0115 C99.1042,170.5425 99.5942,169.6445 101.4702,169.6445 L139.3222,169.6445 C141.1972,169.6445 141.6882,170.5425 141.6882,172.0115" id="Fill-5" fill="#FFFFFF"></path>
                <path d="M171.7838,203.0089 L165.6638,184.9819 L159.5468,203.0089 L171.7838,203.0089 Z M189.5678,223.3229 L181.0018,223.3229 C179.2058,223.3229 178.5548,222.8329 177.9028,220.8739 L175.6158,214.4299 L155.6298,214.4299 L153.3488,220.8739 C152.6938,222.8329 152.0428,223.3229 150.2468,223.3229 L141.6818,223.3229 C139.8878,223.3229 139.8878,222.0179 140.2968,221.0379 L158.4048,172.1739 C159.0598,170.4609 159.9558,169.6449 161.7498,169.6449 L169.5808,169.6449 C171.3748,169.6449 172.1928,170.4609 172.9258,172.1739 L190.9558,221.0379 C191.3608,222.0179 191.3608,223.3229 189.5678,223.3229 L189.5678,223.3229 Z" id="Fill-7" fill="#FFFFFF"></path>
                <g id="Group-11" transform="translate(218.2751, 169.6451)">
                    <mask id="mask-2" fill="white">
                        <use xlink:href="#path-1"></use>
                    </mask>
                    <g id="Clip-10"></g>
                    <path d="M28.551,39.646 L20.313,30.753 C15.011,30.917 12.155,33.12 12.155,37.279 C12.155,41.685 16.396,43.644 19.904,43.644 C22.27,43.644 26.266,42.5 28.551,39.646 M53.024,53.678 L43.969,53.678 C42.339,53.678 41.603,53.106 40.463,52.047 L36.3,48.049 C32.059,52.534 26.43,54.819 20.149,54.901 C8.401,54.901 0,48.211 0,37.2 C0,28.879 6.689,23.576 12.4,22.271 L1.875,11.013 C1.387,10.36 1.305,9.87 1.305,9.382 L1.305,2.366 C1.305,0.897 1.794,-1.42108547e-14 3.671,-1.42108547e-14 L6.198,-1.42108547e-14 L34.834,-1.42108547e-14 C36.709,-1.42108547e-14 37.2,0.897 37.2,2.366 L37.2,8.974 C37.2,10.442 36.709,11.339 34.834,11.339 L17.947,11.339 L34.588,29.448 C36.14,26.838 37.361,25.207 37.77,24.555 C38.26,23.82 38.83,23.168 40.136,23.168 L49.191,23.168 C50.822,23.168 50.822,24.391 50.331,25.453 L42.826,38.341 L54.329,50.985 C55.308,52.047 54.494,53.678 53.024,53.678" id="Fill-9" fill="#FFFFFF" mask="url(#mask-2)"></path>
                </g>
                <path d="M351.7235,171.9295 L351.7235,220.9565 C351.7235,222.8325 350.8265,223.3225 349.3565,223.3225 L341.5255,223.3225 C340.0585,223.3225 339.1615,222.8325 339.1615,220.9565 L339.1615,193.3025 L331.0015,207.5785 C330.5945,208.2295 329.8605,209.2915 328.6375,209.2915 L324.5575,209.2915 C323.3345,209.2915 322.6805,208.2295 322.2735,207.5785 L314.0345,193.3025 L314.0345,220.9565 C314.0345,222.8325 313.1365,223.3225 311.6695,223.3225 L303.5925,223.3225 C302.1255,223.3225 301.2275,222.8325 301.2275,220.9565 L301.2275,171.9295 C301.2275,170.4605 301.7175,169.5625 303.5925,169.5625 L311.6695,169.5625 C314.4415,169.5625 314.7695,171.3575 315.4215,172.3375 L326.5985,192.4055 L337.8555,172.3375 C338.4235,171.3575 338.8335,169.5625 341.5255,169.5625 L349.3565,169.5625 C351.2335,169.5625 351.7235,170.4605 351.7235,171.9295" id="Fill-12" fill="#FFFFFF"></path>
                <path d="M393.1583,187.9999 C393.1583,182.7789 389.4043,179.7609 384.0213,179.7609 C378.7183,179.7609 374.9673,182.7789 374.9673,187.9999 L374.9673,204.9679 C374.9673,210.1889 378.7183,213.2069 384.0213,213.2069 C389.4043,213.2069 393.1583,210.1889 393.1583,204.9679 L393.1583,187.9999 Z M405.9643,206.1089 C405.9643,218.9989 393.7303,224.5459 384.0213,224.5459 C374.3133,224.5459 362.2413,218.9989 362.2413,206.1089 L362.2413,186.8589 C362.2413,173.9689 374.3133,168.4219 384.0213,168.4219 C393.7303,168.4219 405.9643,173.9689 405.9643,186.8589 L405.9643,206.1089 Z" id="Fill-14" fill="#FFFFFF"></path>
                <path d="M459.1461,223.3228 L449.5201,223.3228 C447.5631,223.3228 446.5811,222.5868 445.4421,220.8738 L436.6321,207.7418 C435.8981,206.7628 435.7341,205.8648 435.7341,203.5808 L435.7341,197.0548 C435.7341,195.5878 436.2241,194.6898 438.0981,194.6898 L439.7321,194.6898 C443.7291,194.6898 447.4811,191.9158 447.4811,188.0818 C447.4811,183.8408 444.2171,181.1478 439.9761,181.1478 L429.1261,181.1478 L429.1261,220.9558 C429.1261,222.8328 428.2291,223.3228 426.7621,223.3228 L418.6841,223.3228 C417.2151,223.3228 416.4001,222.8328 416.4001,220.9558 L416.4001,172.0938 C416.4001,170.6268 416.8071,169.7268 418.6841,169.7268 L439.2421,169.7268 C448.1321,169.7268 452.0481,171.5218 455.4761,174.9498 C458.4951,177.8838 460.2071,182.5348 460.2071,187.7558 C460.2071,196.3208 453.9251,202.2748 448.8681,203.9878 L460.3691,220.7118 C461.1051,221.8538 460.6971,223.3228 459.1461,223.3228" id="Fill-16" fill="#FFFFFF"></path>
                <path d="M511.9999,214.2681 L511.9999,220.9561 C511.9999,222.4251 511.5119,223.3231 509.6349,223.3231 L473.0889,223.3231 C471.2119,223.3231 470.7229,222.4251 470.7229,220.9561 L470.7229,172.0111 C470.7229,170.5421 471.2119,169.6451 473.0889,169.6451 L508.2479,169.6451 C510.1249,169.6451 510.6149,170.5421 510.6149,172.0111 L510.6149,178.7811 C510.6149,180.2501 510.1249,181.1481 508.2479,181.1481 L483.6129,181.1481 L483.6129,190.0391 L505.4739,190.0391 C507.3509,190.0391 507.8409,190.9341 507.8409,192.4051 L507.8409,198.7671 C507.8409,200.2371 507.3509,201.1341 505.4739,201.1341 L483.6129,201.1341 L483.6129,211.9021 L509.6349,211.9021 C511.5119,211.9021 511.9999,212.7991 511.9999,214.2681" id="Fill-18" fill="#FFFFFF"></path>
                <path d="M244.5392,127.8802 L229.8852,127.8802 L182.6452,127.8802 L151.6972,74.2762 L182.6452,20.6762 L229.8852,20.6762 L244.5392,20.6762 L249.1502,28.6602 L275.4852,74.2762 L249.1502,119.8932 L244.5392,127.8802 Z M299.3592,74.2762 L268.4122,20.6762 L256.4752,0.0002 L241.8222,0.0002 L170.7092,0.0002 L127.8252,74.2762 L170.7092,148.5562 L241.8222,148.5562 L256.4752,148.5562 L268.4122,127.8802 L299.3592,74.2762 Z" id="Fill-20" fill="#FFFFFF"></path>
                <polygon id="Fill-22" fill="#FFFFFF" points="339.0833 -1.42108547e-14 267.9693 -1.42108547e-14 279.9073 20.676 327.1483 20.676 358.0943 74.277 327.1483 127.88 279.9073 127.88 267.9693 148.556 339.0833 148.556 381.9673 74.277"></polygon>
                <polygon id="Fill-24" fill="#EC6E1E" points="200.259 47.5412 184.824 74.2782 200.259 101.0132 231.132 101.0132 246.568 74.2782 231.132 47.5412"></polygon>
            </g>
        </g>
    </g>
</svg>